<svg xmlns="http://www.w3.org/2000/svg" viewBox="0 0 512 512">
  <rect width="512" height="512" fill="#10231d"/>
  <g transform="translate(256 256) scale(0.72) translate(-256 -256)">
    <rect x="76" y="128" width="180" height="256" fill="#b85c3d" opacity="0.16"/>
    <rect x="256" y="128" width="180" height="256" fill="#2d7c46" opacity="0.16"/>
    <g stroke="#f8fff2" stroke-opacity="0.82" stroke-width="9" fill="none" stroke-linejoin="round" stroke-linecap="round">
      <rect x="76" y="128" width="360" height="256" rx="4"/>
      <line x1="76" y1="176" x2="436" y2="176"/>
      <line x1="76" y1="336" x2="436" y2="336"/>
      <line x1="146" y1="176" x2="146" y2="336"/>
      <line x1="366" y1="176" x2="366" y2="336"/>
      <line x1="146" y1="256" x2="366" y2="256"/>
    </g>
    <line x1="256" y1="128" x2="256" y2="384" stroke="#f8fff2" stroke-width="13" stroke-linecap="round"/>
    <circle cx="256" cy="256" r="86" fill="#d4fb4f"/>
    <path d="M198 182 C 232 224, 232 288, 198 330" stroke="#10231d" stroke-width="13" fill="none" stroke-linecap="round"/>
    <path d="M314 182 C 280 224, 280 288, 314 330" stroke="#10231d" stroke-width="13" fill="none" stroke-linecap="round"/>
  </g>
</svg>
